HIERARCHY
ROOT Hips
{
	OFFSET 0.000000 100.481300 0.000000
	CHANNELS 6 Xposition Yposition Zposition Xrotation Yrotation Zrotation 
	JOINT Spine
	{
		OFFSET -0.279200 12.230698 -2.892100
		CHANNELS 3 Xrotation Yrotation Zrotation
		JOINT Spine1
		{
			OFFSET -0.232667 10.192268 -1.242267
			CHANNELS 3 Xrotation Yrotation Zrotation
			JOINT Spine1_split
			{
				OFFSET -0.232667 10.192268 -1.242267
				CHANNELS 3 Xrotation Yrotation Zrotation
				JOINT Spine2
				{
					OFFSET -0.232667 10.192268 -1.242267
					CHANNELS 3 Xrotation Yrotation Zrotation
					JOINT Neck
					{
						OFFSET -0.418800 17.814194 8.416900
						CHANNELS 3 Xrotation Yrotation Zrotation
						JOINT Head
						{
							OFFSET 0.000000 7.031097 3.806800
							CHANNELS 3 Xrotation Yrotation Zrotation
							JOINT HeadTop_End
							{
								OFFSET 0.000000 24.646606 12.978600
								CHANNELS 3 Xrotation Yrotation Zrotation
								End Site
								{
									OFFSET 0.000000 0.000000 0.000000
								}
							}
						}
					}
					JOINT LeftShoulder
					{
						OFFSET 8.476499 7.247704 -3.868750
						CHANNELS 3 Xrotation Yrotation Zrotation
						JOINT LeftShoulder_split
						{
							OFFSET 8.476499 7.247704 -3.868750
							CHANNELS 3 Xrotation Yrotation Zrotation
							JOINT LeftArm
							{
								OFFSET 9.308998 -2.777710 0.208600
								CHANNELS 3 Xrotation Yrotation Zrotation
								JOINT LeftForeArm
								{
									OFFSET 29.972298 0.000000 0.000000
									CHANNELS 3 Xrotation Yrotation Zrotation
									JOINT LeftHand
									{
										OFFSET 26.026505 0.000000 0.000000
										CHANNELS 3 Xrotation Yrotation Zrotation
										JOINT LeftHandThumb1
										{
											OFFSET 12.240501 -7.147949 9.207150
											CHANNELS 3 Xrotation Yrotation Zrotation
											JOINT LeftHandThumb2
											{
												OFFSET 4.138618 -2.389435 2.389433
												CHANNELS 3 Xrotation Yrotation Zrotation
												JOINT LeftHandThumb3
												{
													OFFSET 2.726913 -1.574387 1.574386
													CHANNELS 3 Xrotation Yrotation Zrotation
													JOINT LeftHandThumb4
													{
														OFFSET 3.941010 -2.275345 2.275342
														CHANNELS 3 Xrotation Yrotation Zrotation
														End Site
														{
															OFFSET 0.000000 0.000000 0.000000
														}
													}
												}
											}
										}
										JOINT LeftHandIndex1
										{
											OFFSET 24.424698 -1.985611 5.953459
											CHANNELS 3 Xrotation Yrotation Zrotation
											JOINT LeftHandIndex2
											{
												OFFSET 6.426697 0.000000 0.000000
												CHANNELS 3 Xrotation Yrotation Zrotation
												JOINT LeftHandIndex3
												{
													OFFSET 5.337898 0.000000 0.000000
													CHANNELS 3 Xrotation Yrotation Zrotation
													JOINT LeftHandIndex4
													{
														OFFSET 4.409401 0.000000 0.000000
														CHANNELS 3 Xrotation Yrotation Zrotation
														End Site
														{
															OFFSET 0.000000 0.000000 0.000000
														}
													}
												}
											}
										}
										JOINT LeftHandMiddle1
										{
											OFFSET 23.810104 0.000000 0.000000
											CHANNELS 3 Xrotation Yrotation Zrotation
											JOINT LeftHandMiddle2
											{
												OFFSET 7.176498 0.000000 0.000000
												CHANNELS 3 Xrotation Yrotation Zrotation
												JOINT LeftHandMiddle3
												{
													OFFSET 6.774902 0.000000 0.000000
													CHANNELS 3 Xrotation Yrotation Zrotation
													JOINT LeftHandMiddle4
													{
														OFFSET 5.403328 0.000000 0.000000
														CHANNELS 3 Xrotation Yrotation Zrotation
														End Site
														{
															OFFSET 0.000000 0.000000 0.000000
														}
													}
												}
											}
										}
										JOINT LeftHandRing1
										{
											OFFSET 22.908401 -0.839279 -6.020567
											CHANNELS 3 Xrotation Yrotation Zrotation
											JOINT LeftHandRing2
											{
												OFFSET 6.337502 0.000000 0.000000
												CHANNELS 3 Xrotation Yrotation Zrotation
												JOINT LeftHandRing3
												{
													OFFSET 5.779297 0.000000 0.000000
													CHANNELS 3 Xrotation Yrotation Zrotation
													JOINT LeftHandRing4
													{
														OFFSET 4.965698 0.000000 0.000000
														CHANNELS 3 Xrotation Yrotation Zrotation
														End Site
														{
															OFFSET 0.000000 0.000000 0.000000
														}
													}
												}
											}
										}
										JOINT LeftHandPinky1
										{
											OFFSET 20.037003 -1.530319 -10.950146
											CHANNELS 3 Xrotation Yrotation Zrotation
											JOINT LeftHandPinky2
											{
												OFFSET 5.254700 0.000000 0.000000
												CHANNELS 3 Xrotation Yrotation Zrotation
												JOINT LeftHandPinky3
												{
													OFFSET 4.810204 0.000000 0.000000
													CHANNELS 3 Xrotation Yrotation Zrotation
													JOINT LeftHandPinky4
													{
														OFFSET 3.647202 0.000000 0.000000
														CHANNELS 3 Xrotation Yrotation Zrotation
														End Site
														{
															OFFSET 0.000000 0.000000 0.000000
														}
													}
												}
											}
										}
									}
								}
							}
						}
					}
					JOINT RightShoulder
					{
						OFFSET -7.570500 7.247704 -3.868750
						CHANNELS 3 Xrotation Yrotation Zrotation
						JOINT RightShoulder_split
						{
							OFFSET -7.570500 7.247704 -3.868750
							CHANNELS 3 Xrotation Yrotation Zrotation
							JOINT RightArm
							{
								OFFSET -9.308998 -2.777710 0.208500
								CHANNELS 3 Xrotation Yrotation Zrotation
								JOINT RightForeArm
								{
									OFFSET -29.972300 0.000000 0.000000
									CHANNELS 3 Xrotation Yrotation Zrotation
									JOINT RightHand
									{
										OFFSET -26.026505 0.000000 0.000000
										CHANNELS 3 Xrotation Yrotation Zrotation
										JOINT RightHandThumb1
										{
											OFFSET -12.240601 -7.148026 9.207092
											CHANNELS 3 Xrotation Yrotation Zrotation
											JOINT RightHandThumb2
											{
												OFFSET -4.138618 -2.389435 2.389433
												CHANNELS 3 Xrotation Yrotation Zrotation
												JOINT RightHandThumb3
												{
													OFFSET -2.726974 -1.574417 1.574421
													CHANNELS 3 Xrotation Yrotation Zrotation
													JOINT RightHandThumb4
													{
														OFFSET -3.941010 -2.275345 2.275343
														CHANNELS 3 Xrotation Yrotation Zrotation
														End Site
														{
															OFFSET 0.000000 0.000000 0.000000
														}
													}
												}
											}
										}
										JOINT RightHandIndex1
										{
											OFFSET -24.424698 -1.985657 5.953444
											CHANNELS 3 Xrotation Yrotation Zrotation
											JOINT RightHandIndex2
											{
												OFFSET -6.426697 0.000000 0.000000
												CHANNELS 3 Xrotation Yrotation Zrotation
												JOINT RightHandIndex3
												{
													OFFSET -5.337898 0.000000 0.000000
													CHANNELS 3 Xrotation Yrotation Zrotation
													JOINT RightHandIndex4
													{
														OFFSET -4.409401 0.000000 0.000000
														CHANNELS 3 Xrotation Yrotation Zrotation
														End Site
														{
															OFFSET 0.000000 0.000000 0.000000
														}
													}
												}
											}
										}
										JOINT RightHandMiddle1
										{
											OFFSET -23.810097 0.000000 0.000000
											CHANNELS 3 Xrotation Yrotation Zrotation
											JOINT RightHandMiddle2
											{
												OFFSET -7.176498 0.000000 0.000000
												CHANNELS 3 Xrotation Yrotation Zrotation
												JOINT RightHandMiddle3
												{
													OFFSET -6.774902 0.000000 0.000000
													CHANNELS 3 Xrotation Yrotation Zrotation
													JOINT RightHandMiddle4
													{
														OFFSET -5.403328 0.000000 0.000000
														CHANNELS 3 Xrotation Yrotation Zrotation
														End Site
														{
															OFFSET 0.000000 0.000000 0.000000
														}
													}
												}
											}
										}
										JOINT RightHandRing1
										{
											OFFSET -22.908302 -0.839325 -6.020576
											CHANNELS 3 Xrotation Yrotation Zrotation
											JOINT RightHandRing2
											{
												OFFSET -6.337502 0.000000 0.000000
												CHANNELS 3 Xrotation Yrotation Zrotation
												JOINT RightHandRing3
												{
													OFFSET -5.779297 0.000000 0.000000
													CHANNELS 3 Xrotation Yrotation Zrotation
													JOINT RightHandRing4
													{
														OFFSET -4.965698 0.000000 0.000000
														CHANNELS 3 Xrotation Yrotation Zrotation
														End Site
														{
															OFFSET 0.000000 0.000000 0.000000
														}
													}
												}
											}
										}
										JOINT RightHandPinky1
										{
											OFFSET -20.037003 -1.530334 -10.950259
											CHANNELS 3 Xrotation Yrotation Zrotation
											JOINT RightHandPinky2
											{
												OFFSET -5.254700 0.000000 0.000000
												CHANNELS 3 Xrotation Yrotation Zrotation
												JOINT RightHandPinky3
												{
													OFFSET -4.810204 0.000000 0.000000
													CHANNELS 3 Xrotation Yrotation Zrotation
													JOINT RightHandPinky4
													{
														OFFSET -3.647202 0.000000 0.000000
														CHANNELS 3 Xrotation Yrotation Zrotation
														End Site
														{
															OFFSET 0.000000 0.000000 0.000000
														}
													}
												}
											}
										}
									}
								}
							}
						}
					}
				}
			}
		}
	}
	JOINT LeftUpLeg
	{
		OFFSET 15.427100 -6.655098 0.678600
		CHANNELS 3 Xrotation Yrotation Zrotation
		JOINT LeftLeg
		{
			OFFSET 4.081073 -39.591068 13.024000
			CHANNELS 3 Xrotation Yrotation Zrotation
			JOINT LeftFoot
			{
				OFFSET -4.081074 -37.707932 -15.979700
				CHANNELS 3 Xrotation Yrotation Zrotation
				JOINT LeftToeBase
				{
					OFFSET 5.346399 -15.068900 20.645000
					CHANNELS 3 Xrotation Yrotation Zrotation
					JOINT LeftToe_End
					{
						OFFSET 2.754700 0.931300 11.300900
						CHANNELS 3 Xrotation Yrotation Zrotation
						End Site
						{
							OFFSET 0.000000 0.000000 0.000000
						}
					}
				}
			}
		}
	}
	JOINT RightUpLeg
	{
		OFFSET -15.569500 -6.655098 0.678600
		CHANNELS 3 Xrotation Yrotation Zrotation
		JOINT RightLeg
		{
			OFFSET -4.081825 -39.591045 13.023800
			CHANNELS 3 Xrotation Yrotation Zrotation
			JOINT RightFoot
			{
				OFFSET 4.081824 -37.707954 -15.979600
				CHANNELS 3 Xrotation Yrotation Zrotation
				JOINT RightToeBase
				{
					OFFSET -5.346400 -15.068900 20.645000
					CHANNELS 3 Xrotation Yrotation Zrotation
					JOINT RightToe_End
					{
						OFFSET -2.754700 0.931300 11.300900
						CHANNELS 3 Xrotation Yrotation Zrotation
						End Site
						{
							OFFSET 0.000000 0.000000 0.000000
						}
					}
				}
			}
		}
	}
}
MOTION
Frames: 6
Frame Time: 0.016667
-1.583716 12.772141 9.130234 -86.970691 -3.827647 -1.546346 0.021116 2.286598 -0.884992 -2.894322 0.722157 -0.032029 0.000000 0.000000 0.000000 -2.892152 0.750137 -0.008815 4.260097 0.456928 0.133952 4.823562 3.550530 10.429257 -0.000000 -0.000000 -0.000000 1.575193 -15.462659 -0.386117 0.000000 0.000000 0.000000 21.370849 -1.052519 -73.139148 0.000017 -137.558453 0.000019 -17.216072 17.260913 -40.864899 -7.747763 -16.408819 12.046778 7.558164 31.509544 -3.040776 -10.327327 16.515338 14.878080 -0.000001 -0.000001 0.000001 0.259312 3.223720 10.217947 0.789878 2.939698 -30.073692 0.009375 -0.331724 3.238832 0.000001 0.000000 0.000000 -0.267158 2.447524 18.123142 0.825493 3.000282 -30.761092 0.002423 -0.168726 1.646712 -0.000000 0.000000 -0.000000 -0.192991 1.876666 21.842786 0.923691 3.159208 -32.588731 0.021153 -0.497949 4.865110 -0.000000 0.000000 -0.000001 -3.484236 5.349107 23.881635 0.640532 2.665504 -27.019996 0.034578 0.636269 -6.221379 -0.000000 -0.000000 -0.000001 0.537272 6.692242 0.071574 0.000000 0.000000 0.000000 17.297883 6.543546 66.743693 0.000060 132.968046 -0.000062 -16.839276 -11.628815 48.900698 -19.372336 9.812715 -17.628151 16.805783 -33.149111 6.482051 3.930027 -4.675020 -18.270503 -0.000001 -0.000002 -0.000001 -0.578707 -1.290234 19.415303 -0.000000 -0.000000 0.000008 0.000372 -0.059106 0.725572 0.000000 0.000000 -0.000000 0.900192 -7.884226 9.062699 0.294490 -1.631362 20.463679 0.051636 -0.692362 8.531054 0.000000 0.000001 0.000003 0.740065 -10.091163 4.911397 1.354385 -3.285246 44.799959 0.134873 1.113829 -13.807952 -0.000000 0.000001 -0.000001 0.507046 -5.672360 8.465993 1.111093 -3.020975 40.379064 0.158025 1.204123 -14.952703 0.000000 0.000001 0.000000 -22.285145 15.195103 -8.526824 20.567590 -4.999789 -8.714896 2.451452 8.514349 9.035026 -0.274321 -0.000003 -0.000004 -0.000000 0.000000 -0.000001 -6.532506 -10.510141 1.208134 5.296124 -6.088434 7.430941 11.434365 -5.226411 25.052943 -2.161785 -0.000020 0.000002 0.000001 0.000000 -0.000001 
-1.585232 12.774193 9.139954 -86.976667 -3.828824 -1.550229 0.025565 2.277036 -0.874159 -2.899775 0.719092 -0.031225 0.000000 0.000000 0.000000 -2.897566 0.747076 -0.008095 4.272381 0.440566 0.143374 4.853065 3.381549 10.433350 -0.000000 0.000000 -0.000000 1.572096 -15.451425 -0.406928 0.000000 0.000000 0.000000 21.322438 -0.990322 -73.108398 0.000038 -137.648912 0.000033 -16.964901 17.158767 -40.725044 -7.677289 -16.481608 12.448407 7.558164 31.509548 -3.040770 -10.327327 16.515341 14.878078 -0.000001 0.000001 -0.000000 0.216530 3.322621 9.268482 0.755087 2.878857 -29.388211 0.020821 -0.494050 4.826923 -0.000000 0.000000 -0.000001 -0.267949 2.540367 17.341936 0.825490 3.000285 -30.761089 0.009838 -0.339740 3.317175 0.000000 -0.000000 0.000001 -0.202646 1.974536 21.008591 0.883421 3.095401 -31.850521 0.034698 -0.637371 6.232218 -0.000000 0.000000 0.000000 -3.543194 5.418534 23.634317 0.608910 2.602634 -26.331955 0.034579 0.636268 -6.221376 0.000000 0.000000 0.000001 0.542298 6.731886 0.071287 0.000000 0.000000 0.000000 17.280957 6.510339 66.772810 -0.000041 132.980341 0.000036 -16.827511 -11.646461 48.903000 -19.372336 9.812716 -17.628153 16.805783 -33.149107 6.482058 3.930028 -4.675019 -18.270496 0.000001 -0.000002 0.000002 -0.578708 -1.290234 19.415299 -0.000001 -0.000000 0.000008 0.000373 -0.059106 0.725571 0.000000 0.000000 -0.000001 0.900191 -7.884227 9.062697 0.294489 -1.631362 20.463679 0.051638 -0.692363 8.531057 0.000000 -0.000002 0.000001 0.740065 -10.091163 4.911395 1.354384 -3.285247 44.799962 0.134875 1.113829 -13.807952 0.000000 -0.000001 -0.000002 0.507044 -5.672361 8.465992 1.111095 -3.020975 40.379061 0.158026 1.204119 -14.952698 -0.000002 0.000002 -0.000001 -22.293287 15.195364 -8.517613 20.595664 -4.999232 -8.718946 2.438324 8.492488 9.038371 -0.272480 -0.000007 -0.000002 -0.000000 -0.000000 -0.000001 -6.517207 -10.509143 1.211198 5.304496 -6.101023 7.428555 11.388507 -5.225534 25.073677 -2.138507 -0.000011 0.000020 0.000001 0.000000 0.000001 
-1.586185 12.776283 9.149841 -86.982712 -3.828506 -1.554349 0.032607 2.267772 -0.861997 -2.905655 0.716116 -0.029207 0.000000 0.000000 0.000000 -2.903444 0.744094 -0.006157 4.284325 0.424950 0.153656 4.886340 3.221610 10.436323 0.000000 0.000000 0.000000 1.568774 -15.437780 -0.427669 0.000000 0.000000 0.000000 21.271661 -0.938646 -73.079998 -0.000007 -137.717733 0.000007 -16.836749 17.157153 -40.835686 -7.606076 -16.554683 12.852127 7.558164 31.509544 -3.040782 -10.327323 16.515338 14.878075 0.000001 0.000001 -0.000002 0.175408 3.423363 8.317323 0.720863 2.817305 -28.699475 0.036850 -0.656784 6.422828 -0.000000 0.000000 -0.000000 -0.267363 2.633423 16.559251 0.825494 3.000284 -30.761082 0.022307 -0.511296 4.995836 0.000001 -0.000000 0.000002 -0.210762 2.072767 20.172856 0.843784 3.030764 -31.108786 0.051658 -0.777108 7.606048 -0.000000 -0.000000 0.000001 -3.600517 5.485858 23.389126 0.577901 2.539081 -25.640614 0.034579 0.636268 -6.221378 0.000000 -0.000000 -0.000001 0.546426 6.771665 0.070983 0.000000 0.000000 0.000000 17.268873 6.484040 66.804236 0.000035 132.995996 -0.000010 -16.820425 -11.675027 48.886054 -19.372336 9.812713 -17.628151 16.805785 -33.149111 6.482051 3.930029 -4.675018 -18.270503 0.000001 -0.000000 0.000003 -0.578705 -1.290234 19.415303 -0.000001 0.000000 0.000007 0.000371 -0.059106 0.725572 -0.000001 -0.000000 0.000001 0.900194 -7.884227 9.062699 0.294487 -1.631362 20.463679 0.051639 -0.692363 8.531057 0.000001 0.000001 0.000000 0.740066 -10.091162 4.911396 1.354384 -3.285247 44.799959 0.134872 1.113827 -13.807952 0.000001 -0.000003 -0.000000 0.507048 -5.672361 8.465992 1.111096 -3.020975 40.379064 0.158025 1.204122 -14.952700 0.000002 -0.000001 0.000001 -22.301000 15.195602 -8.508901 20.623608 -4.998278 -8.723065 2.425334 8.469559 9.042236 -0.270416 -0.000001 -0.000002 -0.000000 -0.000001 -0.000000 -6.501428 -10.508454 1.213523 5.313120 -6.114686 7.426693 11.341491 -5.224905 25.095811 -2.114018 0.000006 -0.000004 -0.000002 -0.000001 0.000000 
-1.586597 12.778252 9.159569 -86.988449 -3.826628 -1.558519 0.041152 2.259776 -0.850269 -2.910626 0.713544 -0.026432 0.000000 0.000000 0.000000 -2.908353 0.741506 -0.003458 4.294646 0.409458 0.165082 4.917913 3.065239 10.438748 0.000000 0.000000 0.000001 1.565690 -15.422390 -0.445049 0.000000 0.000000 0.000000 21.221007 -0.901429 -73.058285 0.000021 -137.753632 0.000048 -16.852073 17.263877 -41.211316 -7.535824 -16.626279 13.248367 7.558164 31.509551 -3.040782 -10.327328 16.515338 14.878076 0.000000 0.000000 0.000003 0.136839 3.523655 7.385379 0.688008 2.756515 -28.023762 0.056977 -0.815960 7.988787 0.000000 0.000000 0.000000 -0.265443 2.724612 15.792273 0.825493 3.000282 -30.761085 0.039420 -0.679196 6.642984 0.000000 -0.000001 0.000000 -0.217212 2.169162 19.353905 0.805717 2.966850 -30.381105 0.071551 -0.913782 8.954125 -0.000000 -0.000000 -0.000000 -3.655687 5.551060 23.150125 0.548224 2.476365 -24.962390 0.034579 0.636268 -6.221378 -0.000000 0.000000 0.000001 0.549124 6.804089 0.070730 0.000000 0.000000 0.000000 17.259739 6.469272 66.833107 0.000004 133.013208 -0.000004 -16.816568 -11.710440 48.858840 -19.372334 9.812718 -17.628156 16.805779 -33.149101 6.482057 3.930029 -4.675019 -18.270505 -0.000001 0.000000 0.000005 -0.578708 -1.290234 19.415301 -0.000001 -0.000000 0.000007 0.000372 -0.059106 0.725571 0.000000 -0.000000 0.000001 0.900192 -7.884227 9.062698 0.294488 -1.631362 20.463679 0.051639 -0.692363 8.531056 0.000001 0.000000 0.000002 0.740063 -10.091162 4.911396 1.354384 -3.285247 44.799962 0.134873 1.113829 -13.807949 -0.000001 0.000001 -0.000002 0.507045 -5.672361 8.465992 1.111095 -3.020975 40.379064 0.158025 1.204124 -14.952701 -0.000000 0.000002 -0.000001 -22.308241 15.195890 -8.500953 20.650358 -4.996977 -8.727208 2.413423 8.445671 9.046753 -0.268054 0.000001 -0.000010 0.000000 -0.000000 -0.000001 -6.485228 -10.507970 1.215328 5.321011 -6.129327 7.424785 11.294111 -5.224950 25.119479 -2.088451 -0.000000 -0.000005 -0.000001 -0.000000 -0.000000 
-1.586504 12.779976 9.168877 -86.993422 -3.823504 -1.562542 0.049473 2.254050 -0.840573 -2.913438 0.711701 -0.023268 0.000000 0.000000 0.000000 -2.911161 0.739642 -0.000361 4.302286 0.393576 0.177342 4.942710 2.906717 10.441089 0.000000 0.000000 0.000000 1.562941 -15.406453 -0.458463 0.000000 0.000000 0.000000 21.172519 -0.881067 -73.043600 0.000015 -137.749684 0.000020 -17.018822 17.477563 -41.840690 -7.468200 -16.694760 13.627841 7.558167 31.509544 -3.040774 -10.327324 16.515338 14.878078 -0.000001 0.000001 0.000002 0.101499 3.621257 6.491885 0.657231 2.697960 -27.376916 0.080318 -0.967781 9.488118 0.000000 0.000000 0.000000 -0.262350 2.812041 15.056833 0.825492 3.000285 -30.761065 0.060320 -0.839415 8.220020 0.000000 -0.000000 -0.000000 -0.221975 2.261703 18.568668 0.770037 2.905210 -29.684528 0.093602 -1.044152 10.244818 0.000001 -0.000000 0.000001 -3.708232 5.614080 22.921054 0.520513 2.415996 -24.313102 0.034578 0.636268 -6.221378 0.000000 -0.000000 -0.000001 0.549912 6.822526 0.070578 0.000000 0.000000 0.000000 17.251586 6.468505 66.853871 -0.000003 133.030365 -0.000005 -16.815009 -11.748449 48.835586 -19.372336 9.812716 -17.628156 16.805781 -33.149104 6.482053 3.930029 -4.675018 -18.270498 -0.000001 -0.000002 -0.000003 -0.578708 -1.290234 19.415303 -0.000002 -0.000000 0.000008 0.000371 -0.059106 0.725572 -0.000002 -0.000001 0.000001 0.900191 -7.884227 9.062697 0.294488 -1.631362 20.463679 0.051637 -0.692362 8.531059 -0.000001 -0.000002 0.000002 0.740064 -10.091163 4.911396 1.354382 -3.285246 44.799962 0.134872 1.113830 -13.807954 0.000000 -0.000003 -0.000001 0.507044 -5.672361 8.465992 1.111095 -3.020975 40.379061 0.158023 1.204124 -14.952696 0.000000 -0.000000 -0.000000 -22.315466 15.196339 -8.493831 20.675469 -4.995466 -8.731332 2.403601 8.420957 9.052120 -0.265452 0.000003 0.000009 -0.000000 0.000000 -0.000001 -6.469407 -10.507582 1.216554 5.328201 -6.144392 7.422766 11.246470 -5.225924 25.144489 -2.061978 -0.000017 0.000020 -0.000001 -0.000000 -0.000000 
-1.585903 12.781349 9.177559 -86.997123 -3.819484 -1.566234 0.055812 2.251486 -0.833991 -2.913368 0.710866 -0.020000 0.000000 0.000000 0.000000 -2.911087 0.738785 0.002853 4.306731 0.376948 0.189636 4.956795 2.740814 10.444432 -0.000000 0.000000 0.000001 1.560520 -15.391387 -0.469535 0.000000 0.000000 0.000000 21.128135 -0.878647 -73.032809 0.000039 -137.704537 0.000035 -17.329168 17.785881 -42.678358 -7.404868 -16.758494 13.981572 7.558166 31.509548 -3.040770 -10.327327 16.515339 14.878076 -0.000001 -0.000000 0.000002 0.069829 3.714106 5.653453 0.629146 2.643080 -26.774147 0.105638 -1.108677 10.885538 0.000000 0.000000 0.000001 -0.258336 2.894071 14.366654 0.825493 3.000284 -30.761082 0.083760 -0.988161 9.689858 0.000001 0.000000 -0.000000 -0.225197 2.348628 17.831758 0.737466 2.847384 -29.035424 0.116797 -1.165179 11.447768 0.000000 -0.000000 -0.000000 -3.757554 5.674404 22.705465 0.495306 2.359457 -23.708061 0.034578 0.636268 -6.221380 0.000000 0.000000 0.000001 0.548347 6.822702 0.070563 0.000000 0.000000 0.000000 17.242908 6.481580 66.861828 0.000039 133.046184 -0.000046 -16.815489 -11.785584 48.832424 -19.372339 9.812718 -17.628151 16.805783 -33.149107 6.482051 3.930029 -4.675019 -18.270498 -0.000003 -0.000001 0.000002 -0.578707 -1.290233 19.415304 -0.000001 -0.000000 0.000007 0.000372 -0.059106 0.725571 0.000000 -0.000000 0.000000 0.900192 -7.884227 9.062699 0.294488 -1.631363 20.463679 0.051638 -0.692363 8.531056 0.000000 0.000000 -0.000001 0.740064 -10.091163 4.911397 1.354384 -3.285247 44.799966 0.134873 1.113831 -13.807951 -0.000002 -0.000000 0.000001 0.507046 -5.672360 8.465993 1.111092 -3.020974 40.379064 0.158024 1.204124 -14.952701 -0.000001 0.000001 0.000002 -22.322800 15.197058 -8.487762 20.698183 -4.993930 -8.735445 2.396791 8.395572 9.058698 -0.262673 0.000001 0.000009 -0.000000 -0.000001 -0.000001 -6.454732 -10.507293 1.217215 5.334602 -6.159715 7.420463 11.198949 -5.227694 25.170400 -2.035021 0.000011 -0.000021 -0.000000 -0.000000 0.000000 
